HIERARCHY
ROOT Hips
{
	OFFSET 0.000000 0.000000 0.000000
	CHANNELS 6 Xposition Yposition Zposition Zrotation Xrotation Yrotation
	JOINT Spine
	{
		OFFSET 0.000000 -0.000000 0.070167
		CHANNELS 6 Xposition Yposition Zposition Zrotation Xrotation Yrotation
		JOINT Spine1
		{
			OFFSET 0.000000 -0.000000 0.166666
			CHANNELS 6 Xposition Yposition Zposition Zrotation Xrotation Yrotation
			JOINT Neck
			{
				OFFSET 0.000000 -0.000000 0.183780
				CHANNELS 6 Xposition Yposition Zposition Zrotation Xrotation Yrotation
				JOINT Head
				{
					OFFSET 0.000000 -0.017114 0.132633
					CHANNELS 6 Xposition Yposition Zposition Zrotation Xrotation Yrotation
					End Site
					{
						OFFSET 0.000000 -0.000000 0.171140
					}
				}
			}
			JOINT LeftShoulder
			{
				OFFSET 0.034466 0.004091 0.144174
				CHANNELS 6 Xposition Yposition Zposition Zrotation Xrotation Yrotation
				JOINT LeftArm
				{
					OFFSET 0.121044 0.000000 0.000000
					CHANNELS 6 Xposition Yposition Zposition Zrotation Xrotation Yrotation
					JOINT LeftForeArm
					{
						OFFSET 0.257070 0.000000 0.000000
						CHANNELS 6 Xposition Yposition Zposition Zrotation Xrotation Yrotation
						JOINT LeftHand
						{
							OFFSET 0.224060 0.000000 0.000000
							CHANNELS 6 Xposition Yposition Zposition Zrotation Xrotation Yrotation
							End Site
							{
								OFFSET 0.128355 0.000000 0.000000
							}
						}
					}
				}
			}
			JOINT RightShoulder
			{
				OFFSET -0.033538 0.004091 0.144174
				CHANNELS 6 Xposition Yposition Zposition Zrotation Xrotation Yrotation
				JOINT RightArm
				{
					OFFSET -0.121044 0.000000 0.000000
					CHANNELS 6 Xposition Yposition Zposition Zrotation Xrotation Yrotation
					JOINT RightForeArm
					{
						OFFSET -0.257070 0.000000 0.000000
						CHANNELS 6 Xposition Yposition Zposition Zrotation Xrotation Yrotation
						JOINT RightHand
						{
							OFFSET -0.224060 0.000000 0.000000
							CHANNELS 6 Xposition Yposition Zposition Zrotation Xrotation Yrotation
							End Site
							{
								OFFSET -0.128355 0.000000 0.000000
							}
						}
					}
				}
			}
		}
	}
	JOINT LeftUpLeg
	{
		OFFSET 0.085570 0.000000 0.000000
		CHANNELS 6 Xposition Yposition Zposition Zrotation Xrotation Yrotation
		JOINT LeftLeg
		{
			OFFSET 0.000000 0.000000 -0.385526
			CHANNELS 6 Xposition Yposition Zposition Zrotation Xrotation Yrotation
			JOINT LeftFoot
			{
				OFFSET 0.000000 0.000000 -0.365921
				CHANNELS 6 Xposition Yposition Zposition Zrotation Xrotation Yrotation
				JOINT LeftToeBase
				{
					OFFSET 0.000000 -0.128355 -0.055620
					CHANNELS 6 Xposition Yposition Zposition Zrotation Xrotation Yrotation
					End Site
					{
						OFFSET 0.000000 -0.034228 0.000000
					}
				}
			}
		}
	}
	JOINT RightUpLeg
	{
		OFFSET -0.085570 0.000000 0.000000
		CHANNELS 6 Xposition Yposition Zposition Zrotation Xrotation Yrotation
		JOINT RightLeg
		{
			OFFSET 0.000000 0.000000 -0.385526
			CHANNELS 6 Xposition Yposition Zposition Zrotation Xrotation Yrotation
			JOINT RightFoot
			{
				OFFSET 0.000000 0.000000 -0.365921
				CHANNELS 6 Xposition Yposition Zposition Zrotation Xrotation Yrotation
				JOINT RightToeBase
				{
					OFFSET 0.000000 -0.128355 -0.055620
					CHANNELS 6 Xposition Yposition Zposition Zrotation Xrotation Yrotation
					End Site
					{
						OFFSET 0.000000 -0.034228 0.000000
					}
				}
			}
		}
	}
}
MOTION
Frames: 7
Frame Time: 0.016667
0.048058 -0.330981 0.826495 -25.562618 -6.225322 -8.650872 0.000000 -0.000000 0.070167 1.579604 2.588813 -2.885765 -0.000000 -0.000000 0.166666 0.867647 5.185571 -7.968705 -0.000000 -0.000000 0.183780 7.337142 8.322340 -0.218793 -0.000000 -0.017114 0.132633 10.117770 -1.129412 19.511359 0.034466 0.004091 0.144174 2.419361 11.388534 -2.935633 0.121044 0.000000 -0.000000 -12.946861 7.033018 72.638304 0.257070 -0.000000 -0.000000 -33.888837 19.041109 -0.068485 0.224060 0.000000 0.000000 -3.638627 18.893048 4.267404 -0.033538 0.004091 0.144174 -7.791980 1.690523 7.207058 -0.121044 0.000000 -0.000000 53.139756 -0.876803 -48.530588 -0.257070 -0.000000 -0.000000 31.850702 -1.615669 26.675066 -0.224060 0.000000 -0.000000 9.776448 -7.834294 17.635641 0.085570 -0.000000 -0.000000 9.921433 3.200532 0.125459 0.000000 0.000000 -0.385526 16.337818 18.684222 -3.339477 0.000000 0.000000 -0.365921 9.510117 1.362546 10.965940 -0.000000 -0.128355 -0.055620 -0.000000 0.000001 -0.000001 -0.085570 0.000000 -0.000000 7.198942 -1.369293 7.353843 0.000000 0.000000 -0.385526 26.439563 13.413231 -6.385045 -0.000000 0.000000 -0.365921 -6.305968 -5.098111 5.235241 -0.000000 -0.128355 -0.055620 -0.000000 -0.000002 -0.000000 
0.049265 -0.328736 0.825642 -24.754192 -5.432158 -9.039317 -0.000000 0.000000 0.070167 1.415283 2.105027 -2.677102 0.000000 -0.000000 0.166666 0.858771 5.537213 -8.299486 -0.000000 -0.000000 0.183780 7.526380 7.995242 -0.117618 -0.000000 -0.017114 0.132633 10.496946 -1.446114 20.505860 0.034466 0.004091 0.144174 2.318741 11.399480 -2.730240 0.121044 0.000000 0.000000 -13.689482 7.130013 72.701319 0.257070 -0.000000 0.000000 -34.285371 18.898073 0.492600 0.224060 0.000000 -0.000000 -3.805897 18.907965 4.253926 -0.033538 0.004091 0.144174 -7.525103 1.716978 7.189899 -0.121044 -0.000000 0.000000 53.761949 -1.186424 -48.558424 -0.257070 0.000000 -0.000000 32.050096 -1.792254 26.748332 -0.224060 0.000000 0.000000 10.040913 -8.033947 17.718132 0.085570 0.000000 -0.000000 9.552668 2.304663 0.704025 0.000000 0.000000 -0.385526 15.903698 18.516824 -3.213143 0.000000 0.000000 -0.365921 9.321937 1.110706 11.053660 -0.000000 -0.128355 -0.055620 0.000000 -0.000002 0.000001 -0.085570 -0.000000 0.000000 6.974716 -2.230739 7.975887 0.000000 0.000000 -0.385526 26.219264 13.408813 -6.385901 -0.000000 0.000000 -0.365921 -6.714437 -6.019081 4.728757 -0.000000 -0.128355 -0.055620 -0.000000 0.000001 0.000000 
0.050211 -0.326254 0.825154 -24.220476 -4.959326 -9.257452 -0.000000 -0.000000 0.070167 1.436361 2.078430 -2.702678 -0.000000 -0.000000 0.166666 0.904304 5.883516 -8.550725 0.000000 -0.000000 0.183780 7.729897 7.580332 -0.112852 -0.000000 -0.017114 0.132633 10.914412 -1.745015 21.600034 0.034466 0.004091 0.144174 2.124392 11.385283 -2.635824 0.121044 0.000000 0.000000 -14.088770 7.264236 72.781458 0.257070 0.000000 -0.000000 -34.937077 18.728701 1.066155 0.224060 0.000000 0.000000 -3.841446 18.921644 3.920552 -0.033538 0.004091 0.144174 -7.214633 1.822423 7.190036 -0.121044 0.000000 -0.000000 54.417968 -1.456745 -48.589296 -0.257070 0.000000 0.000000 32.329543 -2.041085 27.166908 -0.224060 0.000000 -0.000000 10.267956 -8.422807 17.952809 0.085570 -0.000000 0.000000 9.479249 1.728481 0.970462 0.000000 0.000000 -0.385526 15.394316 18.379701 -3.036373 0.000000 0.000000 -0.365921 9.140803 0.910806 11.076541 -0.000000 -0.128355 -0.055620 -0.000001 -0.000000 -0.000000 -0.085570 -0.000000 0.000000 6.676329 -2.909610 8.269198 0.000000 0.000000 -0.385526 25.846025 13.580005 -6.246846 -0.000000 0.000000 -0.365921 -6.692522 -6.512642 4.268782 -0.000000 -0.128355 -0.055620 0.000000 0.000002 -0.000000 
0.052516 -0.322034 0.824385 -24.865333 -4.990933 -9.452470 -0.000000 -0.000000 0.070167 2.402436 3.929610 -3.104826 0.000000 -0.000000 0.166666 1.138260 4.946263 -8.570821 0.000000 0.000000 0.183780 7.897642 7.614969 -0.159476 0.000000 -0.017114 0.132633 11.421940 -2.546147 22.925967 0.034466 0.004091 0.144174 2.006473 11.518744 -2.499535 0.121044 0.000000 -0.000000 -14.540347 7.457595 72.700049 0.257070 0.000000 0.000000 -35.765657 18.717882 1.672923 0.224060 -0.000000 0.000000 -4.157779 19.087648 4.099198 -0.033538 0.004091 0.144174 -6.881942 1.889677 7.213564 -0.121044 -0.000000 -0.000000 55.080155 -1.566441 -48.614630 -0.257070 0.000000 -0.000000 32.449228 -2.220696 27.532180 -0.224060 -0.000000 0.000000 10.474764 -8.707237 17.993450 0.085570 -0.000000 0.000000 10.357409 1.749720 1.061383 -0.000000 0.000000 -0.385526 15.088509 18.339256 -2.926210 -0.000000 0.000000 -0.365921 8.960483 0.439551 11.151167 -0.000000 -0.128355 -0.055620 -0.000001 0.000001 0.000001 -0.085570 -0.000000 0.000000 7.544856 -3.452222 8.542286 -0.000000 0.000000 -0.385526 25.801460 14.096999 -6.611404 0.000000 0.000000 -0.365921 -6.895993 -6.839338 3.935678 0.000000 -0.128355 -0.055620 -0.000000 -0.000000 -0.000000 
0.053724 -0.319156 0.823911 -24.520914 -4.586959 -9.583600 0.000000 -0.000000 0.070167 2.562646 3.955203 -3.258689 0.000000 -0.000000 0.166666 1.248167 5.553709 -8.829125 0.000000 -0.000000 0.183780 8.100765 7.367387 -0.038973 0.000000 -0.017114 0.132633 11.945294 -3.347977 24.048565 0.034466 0.004091 0.144174 1.827846 11.320437 -2.360720 0.121044 -0.000000 -0.000000 -14.817628 7.731916 72.588703 0.257070 0.000000 0.000000 -36.834056 18.513646 2.277519 0.224060 -0.000000 0.000000 -4.258865 19.090727 3.998741 -0.033538 0.004091 0.144174 -6.450767 1.754012 7.346854 -0.121044 0.000000 0.000000 55.537194 -1.871769 -48.578911 -0.257070 0.000000 -0.000000 32.633739 -2.329285 27.873649 -0.224060 -0.000000 -0.000000 10.698748 -8.932575 18.001481 0.085570 -0.000000 -0.000000 10.430087 1.177862 1.217091 0.000000 0.000000 -0.385526 14.591280 18.364244 -2.758918 0.000000 0.000000 -0.365921 8.868409 0.111668 11.422983 -0.000000 -0.128355 -0.055620 -0.000001 0.000002 -0.000001 -0.085570 -0.000000 -0.000000 6.099468 -4.560272 8.589940 -0.000000 -0.000000 -0.385526 25.494303 14.876562 -6.260361 0.000000 0.000000 -0.365921 -5.421718 -7.099644 3.644406 -0.000000 -0.128355 -0.055620 -0.000000 -0.000002 -0.000000 
0.055064 -0.316055 0.823224 -24.181057 -4.091491 -9.707896 -0.000000 -0.000000 0.070167 2.774782 4.123301 -3.452922 -0.000000 -0.000000 0.166666 1.339507 5.775027 -8.969437 -0.000000 -0.000000 0.183780 8.486306 6.769928 0.054317 0.000000 -0.017114 0.132633 12.438662 -3.285240 24.783627 0.034466 0.004091 0.144174 1.642344 11.237868 -2.266935 0.121044 -0.000000 0.000000 -15.124342 8.116362 72.433958 0.257070 -0.000000 0.000000 -37.852550 18.276896 2.836686 0.224060 0.000000 0.000000 -4.454108 19.058067 3.809016 -0.033538 0.004091 0.144174 -6.024555 1.719558 7.361450 -0.121044 0.000000 0.000000 55.982457 -2.170042 -48.450596 -0.257070 0.000000 -0.000000 32.630102 -2.525036 28.085366 -0.224060 0.000000 0.000000 10.909090 -9.128188 18.301594 0.085570 -0.000000 0.000000 10.513525 0.491732 1.356325 -0.000000 0.000000 -0.385526 14.185839 18.420761 -2.520180 0.000000 0.000000 -0.365921 8.724920 -0.211233 11.358793 0.000000 -0.128355 -0.055620 -0.000000 -0.000001 0.000000 -0.085570 -0.000000 0.000000 6.415290 -5.252310 8.825974 -0.000000 0.000000 -0.385526 25.067954 14.989916 -6.217203 -0.000000 0.000000 -0.365921 -5.512734 -7.467366 3.325848 -0.000000 -0.128355 -0.055620 0.000000 -0.000000 -0.000000 
0.056300 -0.313075 0.822653 -23.857531 -3.656293 -9.847957 -0.000000 -0.000000 0.070167 3.002489 4.324925 -3.637212 0.000000 -0.000000 0.166666 1.435165 6.009588 -9.071894 0.000000 0.000000 0.183780 8.626956 7.033847 0.026707 -0.000000 -0.017114 0.132633 13.023795 -4.546190 25.968210 0.034466 0.004091 0.144174 1.530366 11.221033 -2.193821 0.121044 -0.000000 0.000000 -15.422543 8.400462 72.203309 0.257070 0.000000 -0.000000 -38.782535 18.161743 3.333905 0.224060 0.000000 0.000000 -4.907255 19.111378 4.001356 -0.033538 0.004091 0.144174 -5.758159 1.742030 7.404812 -0.121044 -0.000000 -0.000000 56.359419 -2.683712 -48.290728 -0.257070 0.000000 0.000000 32.639080 -2.556335 28.258224 -0.224060 -0.000000 0.000000 11.155490 -9.177474 18.280455 0.085570 -0.000000 -0.000000 10.552592 -0.086311 1.477640 0.000000 0.000000 -0.385526 13.926156 18.425335 -2.277117 -0.000000 0.000000 -0.365921 8.802935 -0.538635 11.880405 -0.000000 -0.128355 -0.055620 -0.000000 0.000001 0.000001 -0.085570 -0.000000 -0.000000 7.352256 -5.687120 9.088019 -0.000000 0.000000 -0.385526 24.171589 14.969090 -6.077658 -0.000000 0.000000 -0.365921 -5.861362 -7.746260 3.062590 -0.000000 -0.128355 -0.055620 0.000000 0.000001 -0.000000 
